<svg id="Group_1_copy" data-name="Group 1 copy" xmlns="http://www.w3.org/2000/svg" viewBox="0 0 277 90"><defs><style>.cls-1{fill:#eee;}.cls-2{fill:#fff;}.cls-3{fill:#111;}</style></defs><title>apple</title><rect id="Rounded_Rectangle_1" data-name="Rounded Rectangle 1" class="cls-1" width="277" height="90" rx="10" ry="10"/><rect id="Rounded_Rectangle_1_copy_2" data-name="Rounded Rectangle 1 copy 2" class="cls-2" x="3" y="3" width="271" height="84" rx="10" ry="10"/><path id="apple" class="cls-3" d="M62,47.28c0-4.61,2.06-8.09,6.28-10.65C66,33.25,62.39,31.39,57.68,31c-4.46-.35-9.33,2.6-11.12,2.6s-6.2-2.48-9.6-2.48c-7,.11-14.46,5.59-14.46,16.73a31.31,31.31,0,0,0,1.81,10.2C25.92,62.69,31.72,74,37.78,73.81c3.17-.07,5.4-2.25,9.52-2.25s6.07,2.25,9.6,2.25c6.1-.09,11.35-10.36,12.88-15C61.59,55,62,47.52,62,47.28ZM54.92,26.65a11.83,11.83,0,0,0,3-9.11,13.32,13.32,0,0,0-8.53,4.38,12,12,0,0,0-3.22,9C49.47,31.21,52.46,29.53,54.92,26.65Z"/><path id="Download_on_the_App_Store" data-name="Download on the App Store" class="cls-3" d="M104.41,34h3.36a7.1,7.1,0,0,0,2.62-.45,5.11,5.11,0,0,0,1.92-1.3,5.58,5.58,0,0,0,1.18-2.08,9,9,0,0,0,.4-2.79,6.77,6.77,0,0,0-1.58-4.82,6,6,0,0,0-4.62-1.68h-3.28V34Zm1.68-1.36V22.24h1.48A4.33,4.33,0,0,1,111,23.56a5.68,5.68,0,0,1,1.14,3.82A5.93,5.93,0,0,1,111,31.26a4.23,4.23,0,0,1-3.46,1.38h-1.48ZM116,31.31a4.8,4.8,0,0,0,1,1.6,4.21,4.21,0,0,0,1.43,1,4.47,4.47,0,0,0,3.42,0,4.22,4.22,0,0,0,1.43-1,4.83,4.83,0,0,0,1-1.6,5.9,5.9,0,0,0,.37-2.15,6,6,0,0,0-.37-2.17,5,5,0,0,0-1-1.61,4.16,4.16,0,0,0-1.43-1,4.47,4.47,0,0,0-3.42,0,4.15,4.15,0,0,0-1.43,1A4.92,4.92,0,0,0,116,27a5.94,5.94,0,0,0-.37,2.17A5.88,5.88,0,0,0,116,31.31Zm1.53-3.68a3.71,3.71,0,0,1,.57-1.19,2.57,2.57,0,0,1,.89-0.77,2.54,2.54,0,0,1,2.28,0,2.59,2.59,0,0,1,.89.77,3.75,3.75,0,0,1,.57,1.19,5.5,5.5,0,0,1,.2,1.53,5.39,5.39,0,0,1-.2,1.52,3.64,3.64,0,0,1-.57,1.17,2.63,2.63,0,0,1-.89.76,2.54,2.54,0,0,1-2.28,0,2.61,2.61,0,0,1-.89-0.76,3.6,3.6,0,0,1-.57-1.17,5.36,5.36,0,0,1-.2-1.52A5.46,5.46,0,0,1,117.49,27.63ZM128.85,34h1.92l1.36-5.2q0.2-.7.36-1.39T132.81,26h0.08q0.18,0.74.33,1.42t0.33,1.38l1.4,5.22h2l2.6-9.72H138l-1.42,5.62q-0.16.7-.3,1.36T136,32.6h-0.08q-0.16-.68-0.33-1.34l-0.35-1.36-1.52-5.62h-1.6l-1.5,5.62q-0.18.68-.34,1.35l-0.32,1.35h-0.08l-0.28-1.34q-0.14-.66-0.3-1.36l-1.44-5.62h-1.68Zm12.46,0h1.64V27a8.68,8.68,0,0,1,1.32-1.12,2.39,2.39,0,0,1,1.34-.38,1.61,1.61,0,0,1,1.4.61,3.48,3.48,0,0,1,.44,2V34h1.64V27.84a4.75,4.75,0,0,0-.71-2.84,2.61,2.61,0,0,0-2.25-1,3.37,3.37,0,0,0-1.79.47,7.88,7.88,0,0,0-1.47,1.17h-0.06l-0.14-1.4h-1.36V34Zm11-2a2.81,2.81,0,0,0,.4,1.64,1.53,1.53,0,0,0,1.34.56,3.24,3.24,0,0,0,.56,0,1.44,1.44,0,0,0,.38-0.12l-0.22-1.24-0.21,0h-0.15a0.42,0.42,0,0,1-.32-0.16,0.85,0.85,0,0,1-.14-0.56V19.76h-1.64V32h0Zm4.65-.73a4.8,4.8,0,0,0,1,1.6,4.21,4.21,0,0,0,1.43,1,4.47,4.47,0,0,0,3.42,0,4.22,4.22,0,0,0,1.43-1,4.83,4.83,0,0,0,1-1.6,5.9,5.9,0,0,0,.37-2.15,6,6,0,0,0-.37-2.17,5,5,0,0,0-1-1.61,4.16,4.16,0,0,0-1.43-1,4.47,4.47,0,0,0-3.42,0,4.15,4.15,0,0,0-1.43,1A4.92,4.92,0,0,0,157,27a5.94,5.94,0,0,0-.37,2.17A5.88,5.88,0,0,0,157,31.31Zm1.53-3.68a3.71,3.71,0,0,1,.57-1.19,2.57,2.57,0,0,1,.89-0.77,2.54,2.54,0,0,1,2.28,0,2.59,2.59,0,0,1,.89.77,3.75,3.75,0,0,1,.57,1.19,5.5,5.5,0,0,1,.2,1.53,5.39,5.39,0,0,1-.2,1.52,3.64,3.64,0,0,1-.57,1.17,2.63,2.63,0,0,1-.89.76,2.54,2.54,0,0,1-2.28,0,2.61,2.61,0,0,1-.89-0.76,3.6,3.6,0,0,1-.57-1.17,5.36,5.36,0,0,1-.2-1.52A5.46,5.46,0,0,1,158.49,27.63Zm10.15,5.89a3,3,0,0,0,2.05.72,3.74,3.74,0,0,0,1.71-.41,8.06,8.06,0,0,0,1.51-1h0L174.09,34h1.36V28a4.81,4.81,0,0,0-.8-2.91A3,3,0,0,0,172.07,24a5.54,5.54,0,0,0-2.16.41,10.59,10.59,0,0,0-1.66.85l0.66,1.14a7.83,7.83,0,0,1,1.31-.72,3.92,3.92,0,0,1,1.59-.32,2,2,0,0,1,1,.21,1.75,1.75,0,0,1,.61.55,2.15,2.15,0,0,1,.32.78,4.48,4.48,0,0,1,.09.9A11.83,11.83,0,0,0,169.26,29a2.7,2.7,0,0,0-1.43,2.45A2.59,2.59,0,0,0,168.64,33.52Zm1-3a1.93,1.93,0,0,1,.73-0.69,5.4,5.4,0,0,1,1.35-.52,17.07,17.07,0,0,1,2.06-.38v2.7a6.47,6.47,0,0,1-1.33,1,2.83,2.83,0,0,1-1.33.33,2,2,0,0,1-1.21-.36,1.39,1.39,0,0,1-.49-1.2,1.7,1.7,0,0,1,.22-0.85h0Zm9,2.41a3.6,3.6,0,0,0,2.93,1.32,3.31,3.31,0,0,0,1.61-.41,6.15,6.15,0,0,0,1.33-1h0.06L184.77,34h1.36V19.76h-1.66V23.5l0.08,1.66a6.55,6.55,0,0,0-1.26-.82,3.32,3.32,0,0,0-1.46-.3,3.69,3.69,0,0,0-1.6.36,4.11,4.11,0,0,0-1.34,1A5,5,0,0,0,178,27a6.11,6.11,0,0,0-.35,2.13,5.76,5.76,0,0,0,1.09,3.76h0Zm0.83-5.3a3.77,3.77,0,0,1,.6-1.17,2.75,2.75,0,0,1,.89-0.76,2.29,2.29,0,0,1,1.09-.27,3.1,3.1,0,0,1,1.17.23,4.15,4.15,0,0,1,1.19.79v5.08a4.6,4.6,0,0,1-1.2,1,2.62,2.62,0,0,1-1.28.33,2.29,2.29,0,0,1-2-1,4.65,4.65,0,0,1-.7-2.74A4.91,4.91,0,0,1,179.53,27.62ZM193,31.31a4.8,4.8,0,0,0,1,1.6,4.21,4.21,0,0,0,1.43,1,4.47,4.47,0,0,0,3.42,0,4.22,4.22,0,0,0,1.43-1,4.83,4.83,0,0,0,1-1.6,5.9,5.9,0,0,0,.37-2.15,6,6,0,0,0-.37-2.17,5,5,0,0,0-1-1.61,4.16,4.16,0,0,0-1.43-1,4.47,4.47,0,0,0-3.42,0,4.15,4.15,0,0,0-1.43,1A4.92,4.92,0,0,0,193,27a5.94,5.94,0,0,0-.37,2.17A5.88,5.88,0,0,0,193,31.31Zm1.53-3.68a3.71,3.71,0,0,1,.57-1.19,2.57,2.57,0,0,1,.89-0.77,2.54,2.54,0,0,1,2.28,0,2.59,2.59,0,0,1,.89.77,3.75,3.75,0,0,1,.57,1.19,5.5,5.5,0,0,1,.2,1.53,5.39,5.39,0,0,1-.2,1.52,3.64,3.64,0,0,1-.57,1.17,2.63,2.63,0,0,1-.89.76,2.54,2.54,0,0,1-2.28,0,2.61,2.61,0,0,1-.89-0.76,3.6,3.6,0,0,1-.57-1.17,5.36,5.36,0,0,1-.2-1.52A5.46,5.46,0,0,1,194.49,27.63ZM204.31,34h1.64V27a8.68,8.68,0,0,1,1.32-1.12,2.39,2.39,0,0,1,1.34-.38,1.61,1.61,0,0,1,1.4.61,3.48,3.48,0,0,1,.44,2V34h1.64V27.84a4.75,4.75,0,0,0-.71-2.84,2.61,2.61,0,0,0-2.25-1,3.37,3.37,0,0,0-1.79.47,7.88,7.88,0,0,0-1.47,1.17h-0.06l-0.14-1.4h-1.36V34Zm15.28-3a5.77,5.77,0,0,0,.14,1.32,2.57,2.57,0,0,0,.47,1,2.25,2.25,0,0,0,.86.66,3.17,3.17,0,0,0,1.31.24,4.09,4.09,0,0,0,.93-0.11,8.55,8.55,0,0,0,.87-0.25l-0.32-1.24a4.19,4.19,0,0,1-.54.18,2.18,2.18,0,0,1-.56.08,1.31,1.31,0,0,1-1.17-.49,2.48,2.48,0,0,1-.33-1.39v-5.4h2.62V24.28h-2.62V21.56h-1.38l-0.2,2.72-1.52.1v1.24h1.44V31h0Zm6.72,3h1.64V27a8.68,8.68,0,0,1,1.32-1.12,2.39,2.39,0,0,1,1.34-.38,1.61,1.61,0,0,1,1.4.61,3.48,3.48,0,0,1,.44,2V34h1.64V27.84a4.75,4.75,0,0,0-.71-2.84,2.61,2.61,0,0,0-2.25-1,3.32,3.32,0,0,0-1.78.47,9.09,9.09,0,0,0-1.46,1.13l0.06-2V19.76h-1.64V34h0Zm10.64-2.7a4.63,4.63,0,0,0,1,1.59,4.33,4.33,0,0,0,1.48,1,4.76,4.76,0,0,0,1.83.35,4.93,4.93,0,0,0,1.78-.3,8.28,8.28,0,0,0,1.42-.7l-0.58-1.08a5.7,5.7,0,0,1-1.13.55,3.83,3.83,0,0,1-1.29.21,3,3,0,0,1-2.27-.92,3.86,3.86,0,0,1-1-2.5h6.56a5.62,5.62,0,0,0,.06-0.9,6.36,6.36,0,0,0-.26-1.88,4.25,4.25,0,0,0-.75-1.44,3.23,3.23,0,0,0-1.22-.92,4.08,4.08,0,0,0-1.65-.32,3.92,3.92,0,0,0-1.62.35,4.25,4.25,0,0,0-1.39,1A5,5,0,0,0,237,27a5.88,5.88,0,0,0-.37,2.15A6,6,0,0,0,236.95,31.3Zm1.24-2.88a4.42,4.42,0,0,1,.33-1.31,3.18,3.18,0,0,1,.63-1,2.73,2.73,0,0,1,.85-0.6,2.4,2.4,0,0,1,1-.21,2.13,2.13,0,0,1,1.77.79,3.6,3.6,0,0,1,.63,2.29h-5.2ZM108.43,58l0.69-2.4q0.48-1.56.9-3.19l0.84-3.28H111q0.42,1.62.87,3.27t0.9,3.21l0.69,2.4h-5Zm7.32,8h3.69L113,46.38H109L102.55,66h3.57l1.53-5.31h6.57Zm9.47-1.26a7.31,7.31,0,0,0,1.86,1.2,4.76,4.76,0,0,0,1.92.42,5.48,5.48,0,0,0,2.37-.54,6.1,6.1,0,0,0,2-1.54,7.66,7.66,0,0,0,1.4-2.49,10.12,10.12,0,0,0,.52-3.37,11.4,11.4,0,0,0-.39-3.09,7.08,7.08,0,0,0-1.14-2.37A5.08,5.08,0,0,0,132,51.43a5.47,5.47,0,0,0-2.45-.53,5.24,5.24,0,0,0-2.37.57,10.5,10.5,0,0,0-2.07,1.35h-0.12l-0.24-1.56h-2.85V71.82h3.45V67.2Zm0.09-9.33a4.79,4.79,0,0,1,3.24-1.65A2.63,2.63,0,0,1,131,55a6.65,6.65,0,0,1,.75,3.45,6.12,6.12,0,0,1-1,3.8,3,3,0,0,1-2.46,1.28,4.17,4.17,0,0,1-1.41-.27,5.15,5.15,0,0,1-1.56-1V55.41h0Zm16.91,9.33a7.32,7.32,0,0,0,1.86,1.2,4.76,4.76,0,0,0,1.92.42,5.48,5.48,0,0,0,2.37-.54,6.1,6.1,0,0,0,2-1.54,7.66,7.66,0,0,0,1.4-2.49,10.12,10.12,0,0,0,.52-3.37,11.4,11.4,0,0,0-.39-3.09,7.08,7.08,0,0,0-1.14-2.37A5.08,5.08,0,0,0,149,51.43a5.47,5.47,0,0,0-2.45-.53,5.24,5.24,0,0,0-2.37.57,10.5,10.5,0,0,0-2.07,1.35h-0.12l-0.24-1.56h-2.85V71.82h3.45V67.2Zm0.09-9.33a4.79,4.79,0,0,1,3.24-1.65A2.63,2.63,0,0,1,148,55a6.65,6.65,0,0,1,.75,3.45,6.12,6.12,0,0,1-1,3.8,3,3,0,0,1-2.46,1.28,4.17,4.17,0,0,1-1.41-.27,5.15,5.15,0,0,1-1.56-1V55.41h0Zm18.47,8.07a10.08,10.08,0,0,0,7.05,2.88,8.78,8.78,0,0,0,3-.46A6.85,6.85,0,0,0,173,64.63a5.32,5.32,0,0,0,1.88-4.1,5.83,5.83,0,0,0-.29-1.9,4.63,4.63,0,0,0-.81-1.46,5.64,5.64,0,0,0-1.26-1.11,9.8,9.8,0,0,0-1.6-.84l-2.64-1.11-1.17-.49a5.57,5.57,0,0,1-1-.57,2.59,2.59,0,0,1-.69-0.72,1.79,1.79,0,0,1-.26-1,2,2,0,0,1,.82-1.7,3.66,3.66,0,0,1,2.24-.62,5.7,5.7,0,0,1,2.29.45,8.06,8.06,0,0,1,2,1.23l1.8-2.22a8.53,8.53,0,0,0-2.73-1.81,8.44,8.44,0,0,0-3.33-.67,8,8,0,0,0-2.64.42,6.35,6.35,0,0,0-2.07,1.17,5.51,5.51,0,0,0-1.37,1.76,4.86,4.86,0,0,0-.5,2.17,5,5,0,0,0,.35,1.92,5.13,5.13,0,0,0,.9,1.47A5.75,5.75,0,0,0,164.17,56a9.89,9.89,0,0,0,1.44.75l2.67,1.17c0.44,0.18.85,0.36,1.23,0.54a5.27,5.27,0,0,1,1,.58,2.31,2.31,0,0,1,.63.74,2.14,2.14,0,0,1,.23,1,2.21,2.21,0,0,1-.88,1.83,4,4,0,0,1-2.54.69,6.53,6.53,0,0,1-2.73-.62,8.76,8.76,0,0,1-2.4-1.6ZM178.37,61a8.6,8.6,0,0,0,.26,2.17,4.5,4.5,0,0,0,.81,1.68,3.68,3.68,0,0,0,1.44,1.1,5.39,5.39,0,0,0,2.18.39,7.77,7.77,0,0,0,1.63-.17,11.54,11.54,0,0,0,1.37-.37l-0.6-2.55a3.73,3.73,0,0,1-.74.24,3.67,3.67,0,0,1-.79.09q-2.07,0-2.07-2.58V54h3.75V51.27h-3.75v-4H179l-0.42,4-2.28.15V54h2.1v7Zm10.1,0.9A7.16,7.16,0,0,0,190,64.35a6.56,6.56,0,0,0,2.24,1.5,7,7,0,0,0,2.64.51,7.1,7.1,0,0,0,2.65-.51,6.39,6.39,0,0,0,2.24-1.5,7.49,7.49,0,0,0,1.54-2.43,9.43,9.43,0,0,0,0-6.54,7.49,7.49,0,0,0-1.54-2.43,6.57,6.57,0,0,0-2.24-1.51,6.92,6.92,0,0,0-2.65-.53,6.79,6.79,0,0,0-4.87,2,7.16,7.16,0,0,0-1.54,2.43A9.66,9.66,0,0,0,188.47,61.92Zm3.88-6.85a2.91,2.91,0,0,1,2.54-1.33,2.94,2.94,0,0,1,2.55,1.33,6.17,6.17,0,0,1,.93,3.58,6.11,6.11,0,0,1-.93,3.56,2.94,2.94,0,0,1-2.55,1.33,2.91,2.91,0,0,1-2.54-1.33,6.18,6.18,0,0,1-.91-3.56,6.24,6.24,0,0,1,.92-3.58h0ZM205.86,66h3.45V57A5.21,5.21,0,0,1,211,54.65a3.21,3.21,0,0,1,1.83-.67,4.66,4.66,0,0,1,.81.06,6.43,6.43,0,0,1,.72.18l0.6-3a4.16,4.16,0,0,0-4,.47,6.18,6.18,0,0,0-1.89,2.21h-0.12l-0.24-2.61h-2.85V66h0Zm10.6-4.1A6.91,6.91,0,0,0,218,64.32a6.75,6.75,0,0,0,2.31,1.51,7.65,7.65,0,0,0,2.85.53,8.14,8.14,0,0,0,2.7-.45,10.62,10.62,0,0,0,2.34-1.14L227,62.61a7.91,7.91,0,0,1-1.63.8,5.43,5.43,0,0,1-1.79.28,4.15,4.15,0,0,1-3-1.08,4.85,4.85,0,0,1-1.4-3.09h9.36a7,7,0,0,0,.15-1.62,9.74,9.74,0,0,0-.39-2.82,6.34,6.34,0,0,0-1.15-2.22,5.16,5.16,0,0,0-1.9-1.44,6.42,6.42,0,0,0-2.64-.51,6.21,6.21,0,0,0-2.52.54A6.7,6.7,0,0,0,218,53a7.42,7.42,0,0,0-1.51,2.43,8.74,8.74,0,0,0-.57,3.24,8.9,8.9,0,0,0,.55,3.25h0Zm2.77-4.58a4.55,4.55,0,0,1,1.23-2.8,3.24,3.24,0,0,1,2.31-.94,2.64,2.64,0,0,1,2.26,1,4.55,4.55,0,0,1,.74,2.76h-6.54Z"/></svg>