<svg id="Layer_1" data-name="Layer 1" xmlns="http://www.w3.org/2000/svg" viewBox="0 0 277 90"><defs><style>.cls-1{fill:#eee;}.cls-2{fill:#fff;}.cls-3{fill:#111;}</style></defs><title>google</title><rect id="Rounded_Rectangle_1" data-name="Rounded Rectangle 1" class="cls-1" width="277" height="90" rx="10" ry="10"/><rect id="Rounded_Rectangle_1_copy" data-name="Rounded Rectangle 1 copy" class="cls-2" x="3" y="3" width="271" height="84" rx="10" ry="10"/><path id="_" data-name=" " class="cls-3" d="M57.39,42.81l6.91-6.9L32,17.37Zm-32-26.93a4.47,4.47,0,0,0-2.49,4.06V70.66a4.47,4.47,0,0,0,2.49,4.06L54.9,45.29ZM74.28,41.81l-6.77-3.92L60,45.3l7.55,7.41,6.91-3.92A4.61,4.61,0,0,0,74.28,41.81ZM32,73.23L64.3,54.7l-6.91-6.91Z"/><path id="Get_it_on_Google_Play" data-name="Get it on Google Play" class="cls-3" d="M104.09,30.31a6.19,6.19,0,0,0,1.22,2.14,5.21,5.21,0,0,0,1.86,1.33,6,6,0,0,0,2.38.46,6.16,6.16,0,0,0,2.38-.44,5.18,5.18,0,0,0,1.7-1.08V27.2h-4.3v1.38h2.78V32a2.88,2.88,0,0,1-1,.57,4.28,4.28,0,0,1-1.34.21,4.35,4.35,0,0,1-1.87-.38,3.7,3.7,0,0,1-1.36-1.08,5,5,0,0,1-.84-1.69,7.9,7.9,0,0,1-.29-2.23,7.27,7.27,0,0,1,.31-2.2,4.91,4.91,0,0,1,.88-1.67,3.86,3.86,0,0,1,1.37-1.06,4.24,4.24,0,0,1,1.8-.37,3.42,3.42,0,0,1,1.63.35,4.65,4.65,0,0,1,1.15.87l1-1.06a6.37,6.37,0,0,0-1.5-1.11,4.61,4.61,0,0,0-2.26-.51,6.17,6.17,0,0,0-2.43.47,5.49,5.49,0,0,0-1.92,1.35,6.19,6.19,0,0,0-1.26,2.14,8.41,8.41,0,0,0-.45,2.84A8.72,8.72,0,0,0,104.09,30.31Zm11.86,1a4.63,4.63,0,0,0,1,1.59,4.33,4.33,0,0,0,1.48,1,4.76,4.76,0,0,0,1.83.35,4.94,4.94,0,0,0,1.78-.3,8.28,8.28,0,0,0,1.42-.7l-0.58-1.08a5.7,5.7,0,0,1-1.13.55,3.83,3.83,0,0,1-1.29.21,3,3,0,0,1-2.27-.92,3.86,3.86,0,0,1-1-2.5h6.56a5.62,5.62,0,0,0,.06-0.9,6.36,6.36,0,0,0-.26-1.88,4.24,4.24,0,0,0-.75-1.44,3.23,3.23,0,0,0-1.22-.92,4.08,4.08,0,0,0-1.65-.32,3.92,3.92,0,0,0-1.62.35,4.25,4.25,0,0,0-1.39,1A5,5,0,0,0,116,27a5.88,5.88,0,0,0-.37,2.15A6,6,0,0,0,115.95,31.3Zm1.24-2.88a4.42,4.42,0,0,1,.33-1.31,3.18,3.18,0,0,1,.63-1,2.73,2.73,0,0,1,.85-0.6,2.4,2.4,0,0,1,1-.21,2.14,2.14,0,0,1,1.77.79,3.6,3.6,0,0,1,.63,2.29h-5.2Zm9.4,2.58a5.77,5.77,0,0,0,.14,1.32,2.57,2.57,0,0,0,.47,1,2.25,2.25,0,0,0,.86.66,3.17,3.17,0,0,0,1.31.24,4.09,4.09,0,0,0,.93-0.11,8.55,8.55,0,0,0,.87-0.25l-0.32-1.24a4.19,4.19,0,0,1-.54.18,2.18,2.18,0,0,1-.56.08,1.31,1.31,0,0,1-1.17-.49,2.48,2.48,0,0,1-.33-1.39v-5.4h2.62V24.28h-2.62V21.56h-1.38l-0.2,2.72-1.52.1v1.24h1.44V31ZM139,22a1.05,1.05,0,0,0,0-1.49l0,0a1.28,1.28,0,0,0-1.62,0,1.05,1.05,0,0,0,0,1.49l0,0A1.24,1.24,0,0,0,139,22Zm-1.65,12h1.64V24.28h-1.64V34Zm5.28-3a5.77,5.77,0,0,0,.14,1.32,2.57,2.57,0,0,0,.47,1,2.25,2.25,0,0,0,.86.66,3.17,3.17,0,0,0,1.31.24,4.09,4.09,0,0,0,.93-0.11,8.55,8.55,0,0,0,.87-0.25l-0.32-1.24a4.19,4.19,0,0,1-.54.18,2.18,2.18,0,0,1-.56.08,1.31,1.31,0,0,1-1.17-.49,2.48,2.48,0,0,1-.33-1.39v-5.4h2.62V24.28h-2.62V21.56h-1.38l-0.2,2.72-1.52.1v1.24h1.44V31h0ZM153,31.31a4.8,4.8,0,0,0,1,1.6,4.21,4.21,0,0,0,1.43,1,4.47,4.47,0,0,0,3.42,0,4.22,4.22,0,0,0,1.43-1,4.83,4.83,0,0,0,1-1.6,5.9,5.9,0,0,0,.37-2.15,6,6,0,0,0-.37-2.17,5,5,0,0,0-1-1.61,4.16,4.16,0,0,0-1.43-1,4.47,4.47,0,0,0-3.42,0,4.15,4.15,0,0,0-1.43,1A4.92,4.92,0,0,0,153,27a5.94,5.94,0,0,0-.37,2.17A5.88,5.88,0,0,0,153,31.31Zm1.53-3.68a3.71,3.71,0,0,1,.57-1.19,2.57,2.57,0,0,1,.89-0.77,2.54,2.54,0,0,1,2.28,0,2.59,2.59,0,0,1,.89.77,3.75,3.75,0,0,1,.57,1.19,5.5,5.5,0,0,1,.2,1.53,5.39,5.39,0,0,1-.2,1.52,3.64,3.64,0,0,1-.57,1.17,2.63,2.63,0,0,1-.89.76,2.54,2.54,0,0,1-2.28,0,2.61,2.61,0,0,1-.89-0.76,3.6,3.6,0,0,1-.57-1.17,5.36,5.36,0,0,1-.2-1.52A5.46,5.46,0,0,1,154.49,27.63ZM164.31,34h1.64V27a8.68,8.68,0,0,1,1.32-1.12,2.39,2.39,0,0,1,1.34-.38,1.61,1.61,0,0,1,1.4.61,3.48,3.48,0,0,1,.44,2V34h1.64V27.84a4.75,4.75,0,0,0-.71-2.84,2.61,2.61,0,0,0-2.25-1,3.37,3.37,0,0,0-1.79.47,7.88,7.88,0,0,0-1.47,1.17h-0.06l-0.14-1.4h-1.36V34ZM104.78,60.57a9.16,9.16,0,0,0,1.93,3.18,8,8,0,0,0,2.91,1.95,9.84,9.84,0,0,0,3.63.66,9.4,9.4,0,0,0,3.66-.69A8.82,8.82,0,0,0,119.59,64V55.38h-6.81v2.85h3.69v4.23a3.27,3.27,0,0,1-1.23.65,6.08,6.08,0,0,1-6.06-1.68,8.19,8.19,0,0,1-1.53-5.26,9.75,9.75,0,0,1,.42-3A6.53,6.53,0,0,1,109.25,51a5.24,5.24,0,0,1,1.83-1.41,5.58,5.58,0,0,1,2.39-.5,5,5,0,0,1,2.26.45,6.84,6.84,0,0,1,1.64,1.17l1.92-2.16a8.1,8.1,0,0,0-1.05-.93,7.89,7.89,0,0,0-1.32-.8,8,8,0,0,0-3.48-.76,9.77,9.77,0,0,0-3.69.69,8.41,8.41,0,0,0-3,2,9.44,9.44,0,0,0-2,3.22,12.11,12.11,0,0,0-.72,4.31A12.31,12.31,0,0,0,104.78,60.57Zm18.68,1.35A7.16,7.16,0,0,0,125,64.35a6.56,6.56,0,0,0,2.24,1.5,7,7,0,0,0,2.64.51,7.1,7.1,0,0,0,2.65-.51,6.39,6.39,0,0,0,2.24-1.5,7.49,7.49,0,0,0,1.54-2.43,9.43,9.43,0,0,0,0-6.54,7.49,7.49,0,0,0-1.54-2.43,6.57,6.57,0,0,0-2.24-1.51,6.92,6.92,0,0,0-2.65-.53,6.79,6.79,0,0,0-4.87,2,7.16,7.16,0,0,0-1.54,2.43A10,10,0,0,0,123.47,61.92Zm3.89-6.85a2.91,2.91,0,0,1,2.53-1.33,2.94,2.94,0,0,1,2.55,1.33,6.17,6.17,0,0,1,.93,3.58,6.11,6.11,0,0,1-.93,3.56,2.94,2.94,0,0,1-2.55,1.33,2.91,2.91,0,0,1-2.54-1.33,6.18,6.18,0,0,1-.92-3.56A6.24,6.24,0,0,1,127.35,55.06Zm13.11,6.85A7.16,7.16,0,0,0,142,64.35a6.56,6.56,0,0,0,2.24,1.5,7,7,0,0,0,2.64.51,7.1,7.1,0,0,0,2.65-.51,6.39,6.39,0,0,0,2.24-1.5,7.49,7.49,0,0,0,1.54-2.43,9.43,9.43,0,0,0,0-6.54,7.49,7.49,0,0,0-1.54-2.43,6.57,6.57,0,0,0-2.24-1.51,6.92,6.92,0,0,0-2.65-.53,6.79,6.79,0,0,0-4.87,2,7.16,7.16,0,0,0-1.54,2.43A9.66,9.66,0,0,0,140.47,61.92Zm3.88-6.85a2.91,2.91,0,0,1,2.54-1.33,2.94,2.94,0,0,1,2.55,1.33,6.17,6.17,0,0,1,.93,3.58,6.11,6.11,0,0,1-.93,3.56,2.94,2.94,0,0,1-2.55,1.33,2.91,2.91,0,0,1-2.54-1.33,6.18,6.18,0,0,1-.91-3.56,6.24,6.24,0,0,1,.92-3.58h0Zm16.54,11.15a8.17,8.17,0,0,0,2,.21h2a4.92,4.92,0,0,1,1.93.3,1.15,1.15,0,0,1,.68,1.17,2,2,0,0,1-1.1,1.67,5.29,5.29,0,0,1-2.9.7,5.78,5.78,0,0,1-2.77-.56,1.7,1.7,0,0,1-1-1.54,2.46,2.46,0,0,1,1.14-1.95h0Zm-3.55,4.14a3.78,3.78,0,0,0,1.27,1.2,6.41,6.41,0,0,0,1.93.72,11.73,11.73,0,0,0,2.45.24,12.14,12.14,0,0,0,3.26-.4,8.43,8.43,0,0,0,2.48-1.1,5.06,5.06,0,0,0,1.57-1.65,4,4,0,0,0,.55-2,3,3,0,0,0-1.37-2.78,7.69,7.69,0,0,0-4-.85h-2.61a3.51,3.51,0,0,1-1.87-.36,1.14,1.14,0,0,1-.52-1,1.46,1.46,0,0,1,.2-0.81,3.11,3.11,0,0,1,.52-0.6,4.89,4.89,0,0,0,1,.3,5.69,5.69,0,0,0,1,.09,7.06,7.06,0,0,0,2.19-.33,5.22,5.22,0,0,0,1.77-1,4.5,4.5,0,0,0,1.18-1.56,5.06,5.06,0,0,0,.43-2.16,4.06,4.06,0,0,0-.24-1.42,3.52,3.52,0,0,0-.6-1.06h2.7V51.27h-5.28a7.82,7.82,0,0,0-1-.26,6.23,6.23,0,0,0-1.15-.1,7.08,7.08,0,0,0-2.22.35,5.43,5.43,0,0,0-1.85,1,5,5,0,0,0-1.27,1.67,5.09,5.09,0,0,0-.48,2.25,4.54,4.54,0,0,0,.59,2.33,5.26,5.26,0,0,0,1.34,1.58v0.12a4.77,4.77,0,0,0-1.12,1.15,2.68,2.68,0,0,0-.5,1.58,2.77,2.77,0,0,0,.38,1.5,3,3,0,0,0,.95,1v0.12a5,5,0,0,0-1.56,1.43A3.14,3.14,0,0,0,157.33,70.35Zm4-12a3,3,0,0,1-.75-2.21,2.93,2.93,0,0,1,.75-2.16,2.49,2.49,0,0,1,1.83-.75A2.42,2.42,0,0,1,165,54a3,3,0,0,1,.74,2.15,3,3,0,0,1-.75,2.21,2.43,2.43,0,0,1-1.8.76,2.46,2.46,0,0,1-1.82-.76h0Zm12.52,3.83a5.35,5.35,0,0,0,.75,3,2.92,2.92,0,0,0,2.61,1.11,4.66,4.66,0,0,0,1.83-.3l-0.45-2.58a1.26,1.26,0,0,1-.32.06h-0.23a0.7,0.7,0,0,1-.51-0.26,1.28,1.28,0,0,1-.24-0.88V44.82h-3.45v17.4Zm7.6-.31A6.91,6.91,0,0,0,183,64.32a6.75,6.75,0,0,0,2.31,1.51,7.65,7.65,0,0,0,2.85.53,8.14,8.14,0,0,0,2.7-.45,10.62,10.62,0,0,0,2.34-1.14L192,62.61a7.91,7.91,0,0,1-1.63.8,5.43,5.43,0,0,1-1.79.28,4.15,4.15,0,0,1-3-1.08,4.85,4.85,0,0,1-1.4-3.09h9.36a7,7,0,0,0,.15-1.62,9.74,9.74,0,0,0-.39-2.82,6.34,6.34,0,0,0-1.15-2.22,5.16,5.16,0,0,0-1.9-1.44,6.42,6.42,0,0,0-2.64-.51,6.21,6.21,0,0,0-2.52.54A6.7,6.7,0,0,0,183,53a7.42,7.42,0,0,0-1.51,2.43,8.74,8.74,0,0,0-.57,3.24,8.9,8.9,0,0,0,.55,3.25h0Zm2.77-4.58a4.55,4.55,0,0,1,1.23-2.8,3.24,3.24,0,0,1,2.31-.94,2.64,2.64,0,0,1,2.26,1,4.55,4.55,0,0,1,.74,2.76h-6.54ZM203.12,66h3.48V58.8h3.12a11,11,0,0,0,2.93-.37A6.58,6.58,0,0,0,215,57.26a5.52,5.52,0,0,0,1.57-2,6.52,6.52,0,0,0,.57-2.82,6.59,6.59,0,0,0-.55-2.87,4.91,4.91,0,0,0-1.54-1.87,6.23,6.23,0,0,0-2.35-1,13.94,13.94,0,0,0-3-.3h-6.6V66Zm3.48-10V49.17h2.82a6,6,0,0,1,3.24.7,2.83,2.83,0,0,1,1.08,2.56,3.31,3.31,0,0,1-1.05,2.69,5,5,0,0,1-3.27.88H206.6Zm14.25,6.21a5.35,5.35,0,0,0,.75,3,2.92,2.92,0,0,0,2.61,1.11,4.66,4.66,0,0,0,1.83-.3l-0.45-2.58a1.26,1.26,0,0,1-.32.06h-0.23a0.7,0.7,0,0,1-.51-0.26,1.28,1.28,0,0,1-.24-0.88V44.82h-3.45v17.4Zm8.59,3a4.34,4.34,0,0,0,3.16,1.18,5.34,5.34,0,0,0,2.45-.57,10.8,10.8,0,0,0,2.12-1.41h0.09L237.52,66h2.82V57.27A7.25,7.25,0,0,0,239,52.54a5.06,5.06,0,0,0-4.14-1.63,9.25,9.25,0,0,0-3.29.57,14.94,14.94,0,0,0-2.74,1.35l1.26,2.31a13,13,0,0,1,2-1,5.66,5.66,0,0,1,2.15-.42,3,3,0,0,1,1.24.22,2.11,2.11,0,0,1,.81.63,2.73,2.73,0,0,1,.46.93,4,4,0,0,1,.15,1.1,16.49,16.49,0,0,0-6.6,1.8A4.08,4.08,0,0,0,228.23,62a4.18,4.18,0,0,0,1.21,3.14h0Zm2.41-4.42a2.43,2.43,0,0,1,.88-0.85,7,7,0,0,1,1.63-.67,15.74,15.74,0,0,1,2.52-.48V62a7.79,7.79,0,0,1-1.56,1.2,3.32,3.32,0,0,1-1.65.42,2.41,2.41,0,0,1-1.51-.45,1.7,1.7,0,0,1-.59-1.44,2,2,0,0,1,.28-1h0Zm12.7,8.31-0.63,2.7a5.09,5.09,0,0,0,.87.22,6.49,6.49,0,0,0,1.05.07,5.56,5.56,0,0,0,2.12-.37,4.9,4.9,0,0,0,1.62-1.08,7.39,7.39,0,0,0,1.24-1.7,15.8,15.8,0,0,0,1-2.25l5.34-15.39h-3.33l-2.22,7.23L251,60.55q-0.28,1.06-.55,2.09h-0.12q-0.33-1-.65-2.12t-0.65-2l-2.55-7.23H243l5.79,14.55-0.27.93a4.48,4.48,0,0,1-1.07,1.82,2.53,2.53,0,0,1-1.87.7,2.19,2.19,0,0,1-.55-0.07l-0.5-.14h0Z"/></svg>